<svg width="1440" height="1024" viewBox="0 0 1440 1024" fill="none" xmlns="http://www.w3.org/2000/svg">
<g clip-path="url(#clip0)">
<rect width="1440" height="1024" fill="#A1D6E2"/>
<path d="M58.0846 637.598L230.144 673.808L107.022 806.479L58.0846 637.598Z" fill="#1995AD"/>
<path d="M339.085 799.598L511.144 835.808L388.022 968.479L339.085 799.598Z" fill="#1995AD"/>
<path d="M-34.9154 927.598L137.144 963.808L14.0223 1096.48L-34.9154 927.598Z" fill="#1995AD"/>
<path d="M369.085 542.598L541.144 578.808L418.022 711.479L369.085 542.598Z" fill="#1995AD"/>
<path d="M414.085 -60.4022L586.144 -24.1923L463.022 108.479L414.085 -60.4022Z" fill="#1995AD"/>
<path d="M22.0846 38.5978L194.144 74.8077L71.0223 207.479L22.0846 38.5978Z" fill="#1995AD"/>
<path d="M226.085 260.598L398.144 296.808L275.022 429.479L226.085 260.598Z" fill="#1995AD"/>
</g>
<defs>
<clipPath id="clip0">
<rect width="1440" height="1024" fill="white"/>
</clipPath>
</defs>
</svg>
