<?xml version="1.0" standalone="no"?>
<svg xmlns="http://www.w3.org/2000/svg" viewBox="0 0 333 70" width="333" height="70"><g fill="#ffffff" color="#ffffff" transform="translate(144.128 0) scale(0.9361703) "><svg width="47.0" height="46.0" x="0.0" y="0.0" viewBox="0 0 47 46"><path fill="currentColor" fill-rule="nonzero" d="M44.78 1.64c-3.27-3.27-12.02-.08-21.36 7.22-9.34-7.3-18.09-10.5-21.36-7.22C-1.22 4.91 1.98 13.66 9.27 23 1.98 32.34-1.22 41.09 2.06 44.37c3.27 3.27 12.02.08 21.36-7.22 9.34 7.29 18.09 10.49 21.36 7.22 3.27-3.27.08-12.02-7.22-21.36 7.3-9.35 10.5-18.1 7.22-21.37zm-3.69 2.48c.69 0 .98.14 1.02.18.19.19.68 2.33-1.68 7.26-1.28 2.67-3.1 5.54-5.31 8.44-1.3-1.51-2.7-3.02-4.2-4.51-1.49-1.49-3-2.89-4.51-4.19 6.23-4.72 11.69-7.18 14.68-7.18zM32.71 23a80.65 80.65 0 0 1-9.29 9.29 82.406 82.406 0 0 1-4.84-4.45 80.65 80.65 0 0 1-4.45-4.83 79.34 79.34 0 0 1 4.45-4.84 84.12 84.12 0 0 1 4.83-4.46 79.34 79.34 0 0 1 9.3 9.29zM4.54 5.33c0-.69.14-.98.18-1.02.19-.19 2.33-.68 7.26 1.69 2.67 1.28 5.54 3.1 8.44 5.31a87.109 87.109 0 0 0-4.51 4.2c-1.49 1.49-2.89 3-4.19 4.51C7 13.78 4.54 8.32 4.54 5.33zm1.21 36.55c-.69 0-.99-.15-1.02-.18-.19-.19-.68-2.33 1.69-7.26 1.28-2.67 3.1-5.54 5.31-8.44 1.31 1.51 2.71 3.02 4.2 4.51 1.49 1.49 3 2.89 4.51 4.19-6.24 4.73-11.7 7.18-14.69 7.18zm36.55-1.21c0 .69-.15.98-.18 1.02-.19.19-2.33.68-7.26-1.68-2.67-1.28-5.54-3.1-8.44-5.31 1.51-1.3 3.02-2.7 4.51-4.2 1.49-1.49 2.89-3 4.2-4.51 4.71 6.23 7.17 11.69 7.17 14.68z"></path></svg></g><path fill="#fdfdfd" fill-rule="nonzero" d="M0 1.78L0 1.32L7.18 1.32Q10.51 1.32 12.18 2.22Q13.85 3.12 13.85 5.26L13.85 5.26Q13.85 8.54 9.89 9.19L9.89 9.19L9.89 9.24Q14.69 9.84 14.69 13.42L14.69 13.42Q14.69 16.03 12.72 17.08Q10.75 18.12 7.06 18.12L7.06 18.12L0 18.12L0 17.66L1.56 17.66L1.56 1.78L0 1.78ZM6.79 9.62L6.24 9.62L6.24 17.66L7.37 17.66Q8.69 17.66 9.22 16.75Q9.74 15.84 9.74 14.06L9.74 14.06L9.74 12.79Q9.74 11.21 9.10 10.42Q8.45 9.62 6.79 9.62L6.79 9.62ZM7.01 1.78L6.24 1.78L6.24 9.17L6.86 9.17Q8.11 9.17 8.60 8.41Q9.10 7.66 9.10 6.10L9.10 6.10L9.10 4.97Q9.10 3.19 8.66 2.48Q8.23 1.78 7.01 1.78L7.01 1.78ZM15.82 1.85L15.82 1.32L28.30 1.32L28.54 6.07L28.10 6.07Q27.10 3.65 25.99 2.75Q24.89 1.85 22.75 1.85L22.75 1.85L21.91 1.85L21.91 9.26L22.73 9.26Q23.86 9.26 24.62 8.41Q25.39 7.56 25.70 6.12L25.70 6.12L26.06 6.12L26.06 13.22L25.66 13.22Q25.22 11.42 24.49 10.66Q23.76 9.89 22.49 9.89L22.49 9.89L21.91 9.89L21.91 17.59L22.82 17.59Q25.03 17.59 26.58 16.27Q28.13 14.95 28.70 12.89L28.70 12.89L29.18 12.89L28.99 18.12L15.82 18.12L15.82 17.59L17.23 17.59L17.23 1.85L15.82 1.85ZM45.77 1.78L44.45 1.78L44.45 18.12L41.09 18.12L32.86 2.59L32.86 17.66L34.18 17.66L34.18 18.12L30.89 18.12L30.89 17.66L32.21 17.66L32.21 1.78L30.89 1.78L30.89 1.32L37.51 1.32L43.80 13.37L43.80 1.78L42.48 1.78L42.48 1.32L45.77 1.32L45.77 1.78ZM47.47 1.32L61.63 1.32L61.87 7.34L61.42 7.34Q60.36 4.15 59.54 2.99Q58.73 1.82 57.19 1.82L57.19 1.82L56.90 1.82L56.90 17.62L58.94 17.62L58.94 18.12L50.18 18.12L50.18 17.62L52.22 17.62L52.22 1.82L51.91 1.82Q50.38 1.82 49.54 3.04Q48.70 4.25 47.69 7.34L47.69 7.34L47.23 7.34L47.47 1.32ZM68.90 17.66L70.61 17.66L68.86 12.48L64.10 12.48L62.26 17.66L64.06 17.66L64.06 18.12L60.38 18.12L60.38 17.66L61.51 17.66L67.63 1.18L69.60 1.18L75.65 17.66L76.75 17.66L76.75 18.12L68.90 18.12L68.90 17.66ZM68.66 11.95L66.58 5.66L64.32 11.95L68.66 11.95ZM92.38 1.78L91.06 1.78L91.06 18.12L87.70 18.12L79.46 2.59L79.46 17.66L80.78 17.66L80.78 18.12L77.50 18.12L77.50 17.66L78.82 17.66L78.82 1.78L77.50 1.78L77.50 1.32L84.12 1.32L90.41 13.37L90.41 1.78L89.09 1.78L89.09 1.32L92.38 1.32L92.38 1.78ZM93.58 1.78L93.58 1.32L100.90 1.32L100.90 1.78L99.58 1.78L99.58 17.66L100.90 17.66L100.90 18.12L93.58 18.12L93.58 17.66L94.90 17.66L94.90 1.78L93.58 1.78ZM114.48 17.66L116.18 17.66L114.43 12.48L109.68 12.48L107.83 17.66L109.63 17.66L109.63 18.12L105.96 18.12L105.96 17.66L107.09 17.66L113.21 1.18L115.18 1.18L121.22 17.66L122.33 17.66L122.33 18.12L114.48 18.12L114.48 17.66ZM114.24 11.95L112.15 5.66L109.90 11.95L114.24 11.95ZM122.71 7.13L122.71 6.70L128.50 6.70L128.50 8.90Q129.29 6.46 131.99 6.46Q134.69 6.46 135.26 9.05L135.26 9.05Q136.10 6.46 138.79 6.46L138.79 6.46Q142.32 6.46 142.32 10.46L142.32 10.46L142.32 17.69L143.66 17.69L143.66 18.12L137.02 18.12L137.02 17.69L137.86 17.69L137.86 9.89Q137.86 8.06 137.54 7.75L137.54 7.75Q137.40 7.61 137.16 7.61L137.16 7.61Q136.46 7.61 135.94 8.54Q135.41 9.48 135.41 10.92L135.41 10.92L135.41 17.69L136.27 17.69L136.27 18.12L130.10 18.12L130.10 17.69L130.94 17.69L130.94 9.89Q130.94 8.06 130.63 7.75L130.63 7.75Q130.49 7.61 130.25 7.61L130.25 7.61Q129.58 7.61 129.04 8.63Q128.50 9.65 128.50 11.06L128.50 11.06L128.50 17.69L129.36 17.69L129.36 18.12L122.71 18.12L122.71 17.69L124.03 17.69L124.03 7.13L122.71 7.13ZM147.55 5.04Q146.28 5.04 145.74 4.39Q145.20 3.74 145.20 2.78Q145.20 1.82 145.79 1.20Q146.38 0.58 147.58 0.58Q148.78 0.58 149.40 1.14Q150.02 1.70 150.02 2.75Q150.02 3.79 149.42 4.42Q148.82 5.04 147.55 5.04ZM143.93 7.13L143.93 6.70L149.81 6.70L149.81 17.69L151.15 17.69L151.15 18.12L144.02 18.12L144.02 17.69L145.34 17.69L145.34 7.13L143.93 7.13ZM151.68 7.13L151.68 6.70L157.46 6.70L157.46 8.90Q157.85 7.80 158.64 7.13Q159.43 6.46 161.04 6.46L161.04 6.46Q164.76 6.46 164.76 10.46L164.76 10.46L164.76 17.69L166.10 17.69L166.10 18.12L159.31 18.12L159.31 17.69L160.30 17.69L160.30 9.89Q160.30 8.45 160.10 8.03Q159.91 7.61 159.41 7.61L159.41 7.61Q158.64 7.61 158.05 8.62Q157.46 9.62 157.46 11.06L157.46 11.06L157.46 17.69L158.50 17.69L158.50 18.12L151.68 18.12L151.68 17.69L153.00 17.69L153.00 7.13L151.68 7.13ZM187.63 9.43L187.63 9.43Q187.63 14.38 184.85 16.32L184.85 16.32Q182.28 18.12 177.79 18.12L177.79 18.12L171 18.12L171 17.66L172.58 17.66L172.58 1.78L171 1.78L171 1.32L178.42 1.32Q183.02 1.32 185.33 3.20Q187.63 5.09 187.63 9.43ZM177.26 1.78L177.26 17.66L178.18 17.66Q180.60 17.66 181.64 15.95Q182.69 14.23 182.69 10.20L182.69 10.20L182.69 8.81Q182.69 3.41 180.62 2.30L180.62 2.30Q179.64 1.78 177.84 1.78L177.84 1.78L177.26 1.78ZM195.17 18.36Q192.07 18.36 190.52 16.76Q188.98 15.17 188.98 12.32Q188.98 9.48 190.72 7.97Q192.46 6.46 195.14 6.46L195.14 6.46Q200.59 6.46 200.38 11.93L200.38 11.93L193.61 11.93L193.61 12.86Q193.61 15.22 194.21 16.42Q194.81 17.62 196.30 17.62L196.30 17.62Q199.08 17.62 199.94 14.64L199.94 14.64L200.38 14.71Q199.92 16.44 198.73 17.40Q197.54 18.36 195.17 18.36L195.17 18.36ZM193.63 11.45L196.10 11.45L196.10 10.27Q196.10 8.33 195.88 7.62Q195.65 6.91 194.96 6.91Q194.28 6.91 193.96 7.67Q193.63 8.42 193.63 10.27L193.63 10.27L193.63 11.45ZM193.63 5.16L193.37 4.99L194.88 0.41L196.01 0.17Q196.75 0 197.15 0.35Q197.54 0.70 197.54 1.28Q197.54 1.87 196.85 2.50L196.85 2.50L193.63 5.16ZM201.38 7.13L200.40 7.13L200.40 6.70L207.58 6.70L207.58 7.13L206.06 7.13L208.94 15.10L211.54 7.13L209.93 7.13L209.93 6.70L213.17 6.70L213.17 7.13L212.11 7.13L208.56 18.12L205.82 18.12L201.38 7.13ZM217.99 1.85L217.99 1.32L230.47 1.32L230.71 6.31L230.28 6.31Q229.39 3.72 228.23 2.78Q227.06 1.85 224.76 1.85L224.76 1.85L224.09 1.85L224.09 9.65L225.17 9.65Q226.32 9.65 227.09 8.81Q227.86 7.97 228.14 6.50L228.14 6.50L228.50 6.50L228.50 13.61L228.10 13.61Q227.71 11.81 227.03 11.04Q226.34 10.27 225.17 10.27L225.17 10.27L224.09 10.27L224.09 17.59L227.06 17.59L227.06 18.12L217.99 18.12L217.99 17.59L219.41 17.59L219.41 1.85L217.99 1.85ZM245.26 17.69L245.26 18.12L239.78 18.12L239.52 16.37Q239.14 17.33 238.38 17.84Q237.62 18.36 236.14 18.36L236.14 18.36Q232.42 18.36 232.42 14.35L232.42 14.35L232.42 7.13L231.07 7.13L231.07 6.70L236.88 6.70L236.88 14.93Q236.88 16.37 237.08 16.82Q237.29 17.28 237.90 17.28Q238.51 17.28 238.99 16.54Q239.47 15.79 239.47 14.47L239.47 14.47L239.47 7.13L238.37 7.13L238.37 6.70L243.94 6.70L243.94 17.69L245.26 17.69ZM245.64 0.55L245.64 0.12L251.52 0.12L251.52 17.69L252.86 17.69L252.86 18.12L245.74 18.12L245.74 17.69L247.06 17.69L247.06 0.55L245.64 0.55ZM253.22 0.55L253.22 0.12L259.10 0.12L259.10 17.69L260.45 17.69L260.45 18.12L253.32 18.12L253.32 17.69L254.64 17.69L254.64 0.55L253.22 0.55ZM267.91 11.45L261.86 11.45L261.86 10.73L267.91 10.73L267.91 11.45ZM276.91 17.86L276.91 17.86Q278.11 17.86 279.04 17.21Q279.96 16.56 279.96 15.25Q279.96 13.94 278.96 13.25Q277.97 12.55 276.13 12.04Q274.30 11.52 273.47 11.14Q272.64 10.75 271.90 10.13L271.90 10.13Q270.41 8.88 270.41 6.26L270.41 6.26Q270.41 4.13 271.93 2.59Q273.46 1.06 276.10 1.06L276.10 1.06Q277.37 1.06 278.75 1.43Q280.13 1.80 280.46 1.80Q280.80 1.80 281.06 1.32L281.06 1.32L281.33 1.32L281.50 6.17L281.11 6.17Q279.96 4.08 278.70 2.82Q277.44 1.56 275.96 1.56Q274.49 1.56 273.67 2.24Q272.86 2.93 272.86 4.07Q272.86 5.21 273.83 5.82Q274.80 6.43 276.22 6.82Q277.63 7.20 278.08 7.34Q278.52 7.49 279.18 7.74Q279.84 7.99 280.26 8.27Q280.68 8.54 281.15 8.96Q281.62 9.38 281.88 9.89L281.88 9.89Q282.53 11.04 282.53 12.62L282.53 12.62Q282.53 15.22 280.91 16.79Q279.29 18.36 276.65 18.36L276.65 18.36Q275.28 18.36 273.52 18Q271.75 17.64 271.56 17.64L271.56 17.64Q271.22 17.64 270.91 18.36L270.91 18.36L270.58 18.36L270.34 12.65L270.74 12.65Q271.80 14.74 273.44 16.30Q275.09 17.86 276.91 17.86ZM284.95 14.69L284.95 14.69L284.95 7.13L283.63 7.13L283.63 6.70L284.95 6.70L284.95 3.60L289.42 2.50L289.42 6.70L292.54 6.70L292.54 7.13L289.42 7.13L289.42 15.22Q289.42 16.34 289.64 16.87Q289.87 17.40 290.59 17.40Q291.31 17.40 291.85 16.68Q292.39 15.96 292.56 14.71L292.56 14.71L292.97 14.76Q292.78 16.42 291.91 17.39Q291.05 18.36 289.06 18.36Q287.06 18.36 286.01 17.57Q284.95 16.78 284.95 14.69ZM298.97 12.48L298.97 12.48L299.66 12.48L299.66 10.63Q299.66 8.35 299.41 7.57Q299.16 6.79 298.44 6.79L298.44 6.79Q298.01 6.79 297.66 7.02Q297.31 7.25 297.31 7.64Q297.31 8.04 297.46 8.45L297.46 8.45L298.06 8.45Q298.25 8.95 298.25 9.66Q298.25 10.37 297.65 10.88Q297.05 11.40 296.14 11.40L296.14 11.40Q294.07 11.40 294.07 9.41L294.07 9.41Q294.07 6.46 299.09 6.46L299.09 6.46Q301.94 6.46 303.04 7.43Q304.13 8.40 304.13 10.99L304.13 10.99L304.13 15.86Q304.13 17.11 304.82 17.11L304.82 17.11Q305.64 17.11 305.78 14.64L305.78 14.64L306.14 14.66Q306.05 16.78 305.35 17.57Q304.66 18.36 303.07 18.36L303.07 18.36Q300.19 18.36 299.76 16.58L299.76 16.58Q299.45 17.50 298.82 17.93Q298.20 18.36 297.00 18.36L297.00 18.36Q293.45 18.36 293.45 15.46L293.45 15.46Q293.45 13.75 294.80 13.12Q296.16 12.48 298.97 12.48ZM298.01 15.43Q298.01 16.68 298.14 17.04Q298.27 17.40 298.64 17.40Q299.02 17.40 299.34 16.79Q299.66 16.18 299.66 15.10L299.66 15.10L299.66 12.86L299.50 12.86Q298.01 12.86 298.01 15.05L298.01 15.05L298.01 15.43ZM313.10 6.89L313.10 6.89Q312.05 6.89 311.59 8.04Q311.14 9.19 311.14 11.86L311.14 11.86L311.14 13.10Q311.14 15.48 311.66 16.51Q312.19 17.54 313.61 17.54Q315.02 17.54 315.86 16.58Q316.70 15.62 316.94 14.40L316.94 14.40L317.38 14.45Q316.92 16.51 315.70 17.42L315.70 17.42Q314.45 18.36 312.26 18.36L312.26 18.36Q309.48 18.36 307.99 16.86Q306.50 15.36 306.50 12.47Q306.50 9.58 308.20 8.02Q309.89 6.46 312.91 6.46L312.91 6.46Q315.05 6.46 316.18 7.28Q317.30 8.11 317.30 9.36Q317.30 10.61 316.76 11.18Q316.22 11.76 315.28 11.76Q314.33 11.76 313.75 11.26Q313.18 10.75 313.18 9.77L313.18 9.77Q313.18 9.34 313.30 8.90L313.30 8.90L314.09 8.90Q314.26 8.42 314.26 8.04L314.26 8.04Q314.26 6.89 313.10 6.89ZM332.26 18.12L325.58 18.12L325.58 17.69L326.69 17.69L323.98 12.12L323.52 12.24L323.52 17.69L324.62 17.69L324.62 18.12L317.74 18.12L317.74 17.69L319.06 17.69L319.06 0.55L317.64 0.55L317.64 0.12L323.52 0.12L323.52 11.76L323.90 11.62L329.30 7.13L327.05 7.13L327.05 6.70L331.78 6.70L331.78 7.13L330.10 7.13L327.24 9.55L331.39 17.69L332.26 17.69L332.26 18.12Z" transform="translate(0, 51.064)"></path></svg>